<mxfile host="app.diagrams.net" agent="Mozilla/5.0 (X11; Ubuntu; Linux x86_64; rv:141.0) Gecko/20100101 Firefox/141.0" version="28.1.0" pages="3">
  <diagram name="Page-1" id="RPrAftKhpfh2Gjc6CZIC">
    <mxGraphModel dx="683" dy="489" grid="1" gridSize="10" guides="1" tooltips="1" connect="1" arrows="1" fold="1" page="1" pageScale="1" pageWidth="850" pageHeight="1100" math="0" shadow="0">
      <root>
        <mxCell id="0" />
        <mxCell id="1" parent="0" />
        <mxCell id="IfxmSwvC24aHGd51J0QE-19" style="edgeStyle=orthogonalEdgeStyle;rounded=0;orthogonalLoop=1;jettySize=auto;html=1;exitX=1;exitY=0.5;exitDx=0;exitDy=0;entryX=1;entryY=0.5;entryDx=0;entryDy=0;strokeColor=#878787;endArrow=none;endFill=0;" edge="1" parent="1" source="IfxmSwvC24aHGd51J0QE-1" target="IfxmSwvC24aHGd51J0QE-8">
          <mxGeometry relative="1" as="geometry" />
        </mxCell>
        <mxCell id="IfxmSwvC24aHGd51J0QE-24" style="edgeStyle=orthogonalEdgeStyle;rounded=0;orthogonalLoop=1;jettySize=auto;html=1;exitX=1;exitY=0.25;exitDx=0;exitDy=0;entryX=0.999;entryY=0.947;entryDx=0;entryDy=0;entryPerimeter=0;strokeColor=default;endArrow=none;endFill=0;" edge="1" parent="1" source="IfxmSwvC24aHGd51J0QE-1" target="IfxmSwvC24aHGd51J0QE-8">
          <mxGeometry relative="1" as="geometry">
            <mxPoint x="610" y="690" as="targetPoint" />
            <Array as="points">
              <mxPoint x="550" y="366" />
              <mxPoint x="600" y="366" />
              <mxPoint x="600" y="760" />
              <mxPoint x="550" y="760" />
              <mxPoint x="550" y="767" />
            </Array>
          </mxGeometry>
        </mxCell>
        <mxCell id="IfxmSwvC24aHGd51J0QE-1" value="&lt;div&gt;Battery&lt;/div&gt;" style="rounded=0;whiteSpace=wrap;html=1;" vertex="1" parent="1">
          <mxGeometry x="280" y="360" width="270" height="60" as="geometry" />
        </mxCell>
        <mxCell id="IfxmSwvC24aHGd51J0QE-2" value="+" style="text;strokeColor=none;fillColor=none;align=left;verticalAlign=middle;spacingLeft=4;spacingRight=4;overflow=hidden;points=[[0,0.5],[1,0.5]];portConstraint=eastwest;rotatable=0;whiteSpace=wrap;html=1;" vertex="1" parent="1">
          <mxGeometry x="280" y="390" width="80" height="30" as="geometry" />
        </mxCell>
        <mxCell id="IfxmSwvC24aHGd51J0QE-3" value="+" style="text;strokeColor=none;fillColor=none;align=left;verticalAlign=middle;spacingLeft=4;spacingRight=4;overflow=hidden;points=[[0,0.5],[1,0.5]];portConstraint=eastwest;rotatable=0;whiteSpace=wrap;html=1;" vertex="1" parent="1">
          <mxGeometry x="530" y="390" width="80" height="30" as="geometry" />
        </mxCell>
        <mxCell id="IfxmSwvC24aHGd51J0QE-4" value="&lt;div&gt;_&lt;/div&gt;&lt;div&gt;&lt;br&gt;&lt;/div&gt;" style="text;strokeColor=none;fillColor=none;align=left;verticalAlign=middle;spacingLeft=4;spacingRight=4;overflow=hidden;points=[[0,0.5],[1,0.5]];portConstraint=eastwest;rotatable=0;whiteSpace=wrap;html=1;" vertex="1" parent="1">
          <mxGeometry x="280" y="350" width="80" height="30" as="geometry" />
        </mxCell>
        <mxCell id="IfxmSwvC24aHGd51J0QE-30" style="edgeStyle=orthogonalEdgeStyle;rounded=0;orthogonalLoop=1;jettySize=auto;html=1;entryX=0.5;entryY=0;entryDx=0;entryDy=0;endArrow=none;endFill=0;strokeColor=#878787;" edge="1" parent="1" source="IfxmSwvC24aHGd51J0QE-6" target="IfxmSwvC24aHGd51J0QE-16">
          <mxGeometry relative="1" as="geometry">
            <Array as="points">
              <mxPoint x="260" y="385" />
              <mxPoint x="260" y="520" />
            </Array>
          </mxGeometry>
        </mxCell>
        <mxCell id="IfxmSwvC24aHGd51J0QE-6" value="&lt;div&gt;com&lt;/div&gt;" style="text;strokeColor=none;fillColor=none;align=left;verticalAlign=middle;spacingLeft=4;spacingRight=4;overflow=hidden;points=[[0,0.5],[1,0.5]];portConstraint=eastwest;rotatable=0;whiteSpace=wrap;html=1;" vertex="1" parent="1">
          <mxGeometry x="280" y="370" width="80" height="30" as="geometry" />
        </mxCell>
        <mxCell id="IfxmSwvC24aHGd51J0QE-20" style="edgeStyle=orthogonalEdgeStyle;rounded=0;orthogonalLoop=1;jettySize=auto;html=1;exitX=1;exitY=0.338;exitDx=0;exitDy=0;entryX=0.13;entryY=1;entryDx=0;entryDy=0;entryPerimeter=0;exitPerimeter=0;strokeColor=light-dark(#CC0000,#CC0000);endArrow=none;endFill=0;" edge="1" parent="1" target="IfxmSwvC24aHGd51J0QE-3">
          <mxGeometry relative="1" as="geometry">
            <mxPoint x="550.1428571428571" y="470" as="targetPoint" />
            <mxPoint x="540" y="710.1399999999999" as="sourcePoint" />
            <Array as="points">
              <mxPoint x="540" y="716" />
              <mxPoint x="560" y="716" />
              <mxPoint x="560" y="420" />
            </Array>
          </mxGeometry>
        </mxCell>
        <mxCell id="IfxmSwvC24aHGd51J0QE-8" value="&lt;div&gt;Battery&lt;/div&gt;" style="rounded=0;whiteSpace=wrap;html=1;" vertex="1" parent="1">
          <mxGeometry x="280" y="710" width="270" height="60" as="geometry" />
        </mxCell>
        <mxCell id="IfxmSwvC24aHGd51J0QE-9" value="_" style="text;strokeColor=none;fillColor=none;align=left;verticalAlign=middle;spacingLeft=4;spacingRight=4;overflow=hidden;points=[[0,0.5],[1,0.5]];portConstraint=eastwest;rotatable=0;whiteSpace=wrap;html=1;" vertex="1" parent="1">
          <mxGeometry x="280" y="740" width="80" height="30" as="geometry" />
        </mxCell>
        <mxCell id="IfxmSwvC24aHGd51J0QE-10" value="_" style="text;strokeColor=none;fillColor=none;align=left;verticalAlign=middle;spacingLeft=4;spacingRight=4;overflow=hidden;points=[[0,0.5],[1,0.5]];portConstraint=eastwest;rotatable=0;whiteSpace=wrap;html=1;" vertex="1" parent="1">
          <mxGeometry x="530" y="740" width="80" height="30" as="geometry" />
        </mxCell>
        <mxCell id="IfxmSwvC24aHGd51J0QE-11" value="&lt;div&gt;&lt;br&gt;&lt;/div&gt;&lt;div&gt;+&lt;/div&gt;&lt;div&gt;&lt;br&gt;&lt;/div&gt;&lt;div&gt;&lt;br&gt;&lt;/div&gt;&lt;div&gt;&lt;br&gt;&lt;/div&gt;" style="text;strokeColor=none;fillColor=none;align=left;verticalAlign=middle;spacingLeft=4;spacingRight=4;overflow=hidden;points=[[0,0.5],[1,0.5]];portConstraint=eastwest;rotatable=0;whiteSpace=wrap;html=1;" vertex="1" parent="1">
          <mxGeometry x="280" y="690" width="80" height="30" as="geometry" />
        </mxCell>
        <mxCell id="IfxmSwvC24aHGd51J0QE-13" value="&lt;div&gt;com&lt;/div&gt;" style="text;strokeColor=none;fillColor=none;align=left;verticalAlign=middle;spacingLeft=4;spacingRight=4;overflow=hidden;points=[[0,0.5],[1,0.5]];portConstraint=eastwest;rotatable=0;whiteSpace=wrap;html=1;" vertex="1" parent="1">
          <mxGeometry x="280" y="720" width="80" height="30" as="geometry" />
        </mxCell>
        <mxCell id="IfxmSwvC24aHGd51J0QE-14" value="&lt;div&gt;com&lt;/div&gt;" style="text;strokeColor=none;fillColor=none;align=left;verticalAlign=middle;spacingLeft=4;spacingRight=4;overflow=hidden;points=[[0,0.5],[1,0.5]];portConstraint=eastwest;rotatable=0;whiteSpace=wrap;html=1;" vertex="1" parent="1">
          <mxGeometry x="520" y="726.5" width="80" height="17" as="geometry" />
        </mxCell>
        <mxCell id="IfxmSwvC24aHGd51J0QE-72" style="edgeStyle=orthogonalEdgeStyle;rounded=0;orthogonalLoop=1;jettySize=auto;html=1;entryX=0.25;entryY=0;entryDx=0;entryDy=0;endArrow=none;endFill=0;" edge="1" parent="1" source="IfxmSwvC24aHGd51J0QE-16" target="IfxmSwvC24aHGd51J0QE-31">
          <mxGeometry relative="1" as="geometry">
            <Array as="points">
              <mxPoint x="300" y="510" />
              <mxPoint x="420" y="510" />
              <mxPoint x="420" y="520" />
            </Array>
          </mxGeometry>
        </mxCell>
        <mxCell id="IfxmSwvC24aHGd51J0QE-16" value="BMS" style="whiteSpace=wrap;html=1;aspect=fixed;fillColor=#fff2cc;strokeColor=#d6b656;" vertex="1" parent="1">
          <mxGeometry x="240" y="520" width="80" height="80" as="geometry" />
        </mxCell>
        <mxCell id="IfxmSwvC24aHGd51J0QE-23" value="+" style="text;strokeColor=none;fillColor=none;align=left;verticalAlign=middle;spacingLeft=4;spacingRight=4;overflow=hidden;points=[[0,0.5],[1,0.5]];portConstraint=eastwest;rotatable=0;whiteSpace=wrap;html=1;" vertex="1" parent="1">
          <mxGeometry x="530" y="700" width="80" height="30" as="geometry" />
        </mxCell>
        <mxCell id="IfxmSwvC24aHGd51J0QE-25" value="&lt;div&gt;_&lt;/div&gt;&lt;div&gt;&lt;br&gt;&lt;/div&gt;" style="text;strokeColor=none;fillColor=none;align=left;verticalAlign=middle;spacingLeft=4;spacingRight=4;overflow=hidden;points=[[0,0.5],[1,0.5]];portConstraint=eastwest;rotatable=0;whiteSpace=wrap;html=1;" vertex="1" parent="1">
          <mxGeometry x="530" y="350" width="80" height="30" as="geometry" />
        </mxCell>
        <mxCell id="IfxmSwvC24aHGd51J0QE-27" style="edgeStyle=orthogonalEdgeStyle;rounded=0;orthogonalLoop=1;jettySize=auto;html=1;entryX=0;entryY=0.667;entryDx=0;entryDy=0;entryPerimeter=0;endArrow=none;endFill=0;" edge="1" parent="1">
          <mxGeometry relative="1" as="geometry">
            <mxPoint x="280" y="600" as="sourcePoint" />
            <mxPoint x="249.97" y="760.01" as="targetPoint" />
            <Array as="points">
              <mxPoint x="270" y="600" />
              <mxPoint x="270" y="630" />
              <mxPoint x="220" y="630" />
              <mxPoint x="220" y="760" />
            </Array>
          </mxGeometry>
        </mxCell>
        <mxCell id="IfxmSwvC24aHGd51J0QE-29" style="edgeStyle=orthogonalEdgeStyle;rounded=0;orthogonalLoop=1;jettySize=auto;html=1;exitX=0.5;exitY=0;exitDx=0;exitDy=0;exitPerimeter=0;endArrow=none;endFill=0;" edge="1" parent="1" source="IfxmSwvC24aHGd51J0QE-28" target="IfxmSwvC24aHGd51J0QE-9">
          <mxGeometry relative="1" as="geometry">
            <mxPoint x="250" y="760" as="targetPoint" />
            <Array as="points">
              <mxPoint x="412" y="790" />
              <mxPoint x="220" y="790" />
              <mxPoint x="220" y="760" />
            </Array>
          </mxGeometry>
        </mxCell>
        <mxCell id="IfxmSwvC24aHGd51J0QE-28" value="Warthog chasis" style="pointerEvents=1;verticalLabelPosition=bottom;shadow=0;dashed=0;align=center;html=1;verticalAlign=top;shape=mxgraph.electrical.signal_sources.protective_earth;" vertex="1" parent="1">
          <mxGeometry x="400" y="820" width="25" height="20" as="geometry" />
        </mxCell>
        <mxCell id="IfxmSwvC24aHGd51J0QE-31" value="LLC" style="whiteSpace=wrap;html=1;aspect=fixed;fillColor=#f5f5f5;fontColor=#333333;strokeColor=#666666;" vertex="1" parent="1">
          <mxGeometry x="415" y="520" width="80" height="80" as="geometry" />
        </mxCell>
        <mxCell id="IfxmSwvC24aHGd51J0QE-35" style="edgeStyle=orthogonalEdgeStyle;rounded=0;orthogonalLoop=1;jettySize=auto;html=1;exitX=0.25;exitY=1;exitDx=0;exitDy=0;entryX=0.75;entryY=1;entryDx=0;entryDy=0;endArrow=none;endFill=0;" edge="1" parent="1" source="IfxmSwvC24aHGd51J0QE-32" target="IfxmSwvC24aHGd51J0QE-16">
          <mxGeometry relative="1" as="geometry">
            <Array as="points">
              <mxPoint x="520" y="630" />
              <mxPoint x="310" y="630" />
              <mxPoint x="310" y="600" />
            </Array>
          </mxGeometry>
        </mxCell>
        <mxCell id="IfxmSwvC24aHGd51J0QE-98" style="edgeStyle=orthogonalEdgeStyle;rounded=0;orthogonalLoop=1;jettySize=auto;html=1;entryX=0;entryY=0.25;entryDx=0;entryDy=0;endArrow=none;endFill=0;strokeColor=light-dark(#CC0000,#CC0000);" edge="1" parent="1" source="IfxmSwvC24aHGd51J0QE-32" target="IfxmSwvC24aHGd51J0QE-33">
          <mxGeometry relative="1" as="geometry">
            <Array as="points">
              <mxPoint x="520" y="474" />
            </Array>
          </mxGeometry>
        </mxCell>
        <mxCell id="IfxmSwvC24aHGd51J0QE-32" value="&lt;font style=&quot;font-size: 10px;&quot;&gt;Charger&lt;/font&gt;" style="rounded=0;whiteSpace=wrap;html=1;fillColor=#fff2cc;strokeColor=#d6b656;" vertex="1" parent="1">
          <mxGeometry x="510" y="550" width="40" height="60" as="geometry" />
        </mxCell>
        <mxCell id="IfxmSwvC24aHGd51J0QE-81" style="edgeStyle=orthogonalEdgeStyle;rounded=0;orthogonalLoop=1;jettySize=auto;html=1;strokeColor=default;endArrow=none;endFill=0;entryX=0.182;entryY=0.013;entryDx=0;entryDy=0;entryPerimeter=0;" edge="1" parent="1" source="IfxmSwvC24aHGd51J0QE-33" target="IfxmSwvC24aHGd51J0QE-88">
          <mxGeometry relative="1" as="geometry">
            <mxPoint x="310" y="510" as="targetPoint" />
            <Array as="points">
              <mxPoint x="301" y="468" />
            </Array>
          </mxGeometry>
        </mxCell>
        <mxCell id="IfxmSwvC24aHGd51J0QE-33" value="" style="whiteSpace=wrap;html=1;aspect=fixed;direction=west;" vertex="1" parent="1">
          <mxGeometry x="400" y="455" width="25" height="25" as="geometry" />
        </mxCell>
        <mxCell id="IfxmSwvC24aHGd51J0QE-34" value="Rocker acces" style="text;strokeColor=none;fillColor=none;align=left;verticalAlign=middle;spacingLeft=4;spacingRight=4;overflow=hidden;points=[[0,0.5],[1,0.5]];portConstraint=eastwest;rotatable=0;whiteSpace=wrap;html=1;" vertex="1" parent="1">
          <mxGeometry x="370" y="425" width="125" height="30" as="geometry" />
        </mxCell>
        <mxCell id="IfxmSwvC24aHGd51J0QE-36" style="edgeStyle=orthogonalEdgeStyle;rounded=0;orthogonalLoop=1;jettySize=auto;html=1;endArrow=none;endFill=0;strokeColor=light-dark(#CC0000,#CC0000);" edge="1" parent="1" source="IfxmSwvC24aHGd51J0QE-32">
          <mxGeometry relative="1" as="geometry">
            <mxPoint x="300" y="600" as="targetPoint" />
            <Array as="points">
              <mxPoint x="512" y="640" />
              <mxPoint x="301" y="640" />
              <mxPoint x="301" y="600" />
            </Array>
          </mxGeometry>
        </mxCell>
        <mxCell id="IfxmSwvC24aHGd51J0QE-94" style="edgeStyle=orthogonalEdgeStyle;rounded=0;orthogonalLoop=1;jettySize=auto;html=1;exitX=0;exitY=0.5;exitDx=0;exitDy=0;exitPerimeter=0;entryX=0;entryY=0.5;entryDx=0;entryDy=0;endArrow=none;endFill=0;strokeColor=light-dark(#CC0000,#CC0000);" edge="1" parent="1" source="IfxmSwvC24aHGd51J0QE-38" target="IfxmSwvC24aHGd51J0QE-33">
          <mxGeometry relative="1" as="geometry" />
        </mxCell>
        <mxCell id="IfxmSwvC24aHGd51J0QE-38" value="&lt;font style=&quot;font-size: 6px;&quot;&gt;275 A&lt;/font&gt;" style="pointerEvents=1;verticalLabelPosition=bottom;shadow=0;dashed=0;align=center;html=1;verticalAlign=bottom;shape=mxgraph.electrical.miscellaneous.fuse_4;" vertex="1" parent="1">
          <mxGeometry x="520" y="462.5" width="40" height="10" as="geometry" />
        </mxCell>
        <mxCell id="IfxmSwvC24aHGd51J0QE-46" style="edgeStyle=orthogonalEdgeStyle;rounded=0;orthogonalLoop=1;jettySize=auto;html=1;endArrow=none;endFill=0;exitX=0;exitY=0.8;exitDx=0;exitDy=0;" edge="1" parent="1" source="IfxmSwvC24aHGd51J0QE-53">
          <mxGeometry relative="1" as="geometry">
            <mxPoint x="194" y="815" as="sourcePoint" />
            <mxPoint x="250" y="600" as="targetPoint" />
            <Array as="points">
              <mxPoint x="250" y="600" />
            </Array>
          </mxGeometry>
        </mxCell>
        <mxCell id="IfxmSwvC24aHGd51J0QE-45" value="" style="html=1;shape=mxgraph.electrical.electro-mechanical.singleSwitch;aspect=fixed;elSwitchState=off;rotation=-90;" vertex="1" parent="1">
          <mxGeometry x="172" y="810" width="37.5" height="10" as="geometry" />
        </mxCell>
        <mxCell id="IfxmSwvC24aHGd51J0QE-47" style="edgeStyle=orthogonalEdgeStyle;rounded=0;orthogonalLoop=1;jettySize=auto;html=1;exitX=1;exitY=0.8;exitDx=0;exitDy=0;endArrow=none;endFill=0;entryX=0.061;entryY=0.998;entryDx=0;entryDy=0;entryPerimeter=0;" edge="1" parent="1" source="IfxmSwvC24aHGd51J0QE-45" target="IfxmSwvC24aHGd51J0QE-16">
          <mxGeometry relative="1" as="geometry">
            <mxPoint x="245" y="601" as="targetPoint" />
            <Array as="points">
              <mxPoint x="194" y="613" />
              <mxPoint x="245" y="613" />
              <mxPoint x="245" y="601" />
            </Array>
          </mxGeometry>
        </mxCell>
        <mxCell id="IfxmSwvC24aHGd51J0QE-64" style="edgeStyle=orthogonalEdgeStyle;rounded=0;orthogonalLoop=1;jettySize=auto;html=1;exitX=0.25;exitY=1;exitDx=0;exitDy=0;entryX=1;entryY=1;entryDx=0;entryDy=0;jumpStyle=arc;endArrow=none;endFill=0;" edge="1" parent="1" source="IfxmSwvC24aHGd51J0QE-48" target="IfxmSwvC24aHGd51J0QE-57">
          <mxGeometry relative="1" as="geometry">
            <Array as="points">
              <mxPoint x="350" y="590" />
            </Array>
          </mxGeometry>
        </mxCell>
        <mxCell id="IfxmSwvC24aHGd51J0QE-66" style="edgeStyle=orthogonalEdgeStyle;rounded=0;orthogonalLoop=1;jettySize=auto;html=1;entryX=0.5;entryY=1;entryDx=0;entryDy=0;jumpStyle=arc;endArrow=none;endFill=0;" edge="1" parent="1" source="IfxmSwvC24aHGd51J0QE-48" target="IfxmSwvC24aHGd51J0QE-57">
          <mxGeometry relative="1" as="geometry">
            <Array as="points">
              <mxPoint x="363" y="628" />
              <mxPoint x="363" y="628" />
            </Array>
          </mxGeometry>
        </mxCell>
        <mxCell id="IfxmSwvC24aHGd51J0QE-68" style="edgeStyle=orthogonalEdgeStyle;rounded=0;orthogonalLoop=1;jettySize=auto;html=1;exitX=0.5;exitY=1;exitDx=0;exitDy=0;entryX=0.25;entryY=1;entryDx=0;entryDy=0;endArrow=none;endFill=0;" edge="1" parent="1" source="IfxmSwvC24aHGd51J0QE-48" target="IfxmSwvC24aHGd51J0QE-31">
          <mxGeometry relative="1" as="geometry">
            <Array as="points">
              <mxPoint x="363" y="590" />
              <mxPoint x="363" y="605" />
              <mxPoint x="435" y="605" />
            </Array>
          </mxGeometry>
        </mxCell>
        <mxCell id="IfxmSwvC24aHGd51J0QE-95" style="edgeStyle=orthogonalEdgeStyle;rounded=0;orthogonalLoop=1;jettySize=auto;html=1;entryX=1;entryY=0.25;entryDx=0;entryDy=0;endArrow=none;endFill=0;jumpStyle=arc;" edge="1" parent="1" source="IfxmSwvC24aHGd51J0QE-48" target="IfxmSwvC24aHGd51J0QE-33">
          <mxGeometry relative="1" as="geometry">
            <Array as="points">
              <mxPoint x="360" y="474" />
            </Array>
          </mxGeometry>
        </mxCell>
        <mxCell id="IfxmSwvC24aHGd51J0QE-48" value="Breakout" style="whiteSpace=wrap;html=1;aspect=fixed;fillColor=#d5e8d4;strokeColor=#82b366;" vertex="1" parent="1">
          <mxGeometry x="340" y="530" width="60" height="60" as="geometry" />
        </mxCell>
        <mxCell id="IfxmSwvC24aHGd51J0QE-49" style="edgeStyle=orthogonalEdgeStyle;rounded=0;orthogonalLoop=1;jettySize=auto;html=1;entryX=0;entryY=0;entryDx=0;entryDy=0;entryPerimeter=0;endArrow=none;endFill=0;strokeColor=light-dark(#CC0000,#CC0000);" edge="1" parent="1" source="IfxmSwvC24aHGd51J0QE-16" target="IfxmSwvC24aHGd51J0QE-13">
          <mxGeometry relative="1" as="geometry">
            <Array as="points">
              <mxPoint x="280" y="640" />
              <mxPoint x="230" y="640" />
              <mxPoint x="230" y="720" />
            </Array>
          </mxGeometry>
        </mxCell>
        <mxCell id="IfxmSwvC24aHGd51J0QE-50" value="&lt;div&gt;Main Switch&lt;/div&gt;" style="text;strokeColor=none;fillColor=none;align=left;verticalAlign=middle;spacingLeft=4;spacingRight=4;overflow=hidden;points=[[0,0.5],[1,0.5]];portConstraint=eastwest;rotatable=0;whiteSpace=wrap;html=1;" vertex="1" parent="1">
          <mxGeometry x="110" y="800" width="80" height="30" as="geometry" />
        </mxCell>
        <mxCell id="IfxmSwvC24aHGd51J0QE-51" value="" style="rounded=0;whiteSpace=wrap;html=1;fillColor=#878787;" vertex="1" parent="1">
          <mxGeometry x="298" y="600" width="15" height="20" as="geometry" />
        </mxCell>
        <mxCell id="IfxmSwvC24aHGd51J0QE-52" value="" style="rounded=0;whiteSpace=wrap;html=1;fillColor=#878787;" vertex="1" parent="1">
          <mxGeometry x="267" y="600" width="15" height="20" as="geometry" />
        </mxCell>
        <mxCell id="IfxmSwvC24aHGd51J0QE-54" value="" style="edgeStyle=orthogonalEdgeStyle;rounded=0;orthogonalLoop=1;jettySize=auto;html=1;endArrow=none;endFill=0;exitX=0;exitY=0.8;exitDx=0;exitDy=0;" edge="1" parent="1" source="IfxmSwvC24aHGd51J0QE-45" target="IfxmSwvC24aHGd51J0QE-53">
          <mxGeometry relative="1" as="geometry">
            <mxPoint x="194" y="834" as="sourcePoint" />
            <mxPoint x="250" y="600" as="targetPoint" />
            <Array as="points">
              <mxPoint x="200" y="834" />
              <mxPoint x="200" y="620" />
              <mxPoint x="250" y="620" />
            </Array>
          </mxGeometry>
        </mxCell>
        <mxCell id="IfxmSwvC24aHGd51J0QE-53" value="" style="rounded=0;whiteSpace=wrap;html=1;fillColor=#878787;" vertex="1" parent="1">
          <mxGeometry x="240" y="600" width="15" height="10" as="geometry" />
        </mxCell>
        <mxCell id="IfxmSwvC24aHGd51J0QE-55" style="edgeStyle=orthogonalEdgeStyle;rounded=0;orthogonalLoop=1;jettySize=auto;html=1;exitX=1;exitY=0.25;exitDx=0;exitDy=0;entryX=0.011;entryY=0.174;entryDx=0;entryDy=0;entryPerimeter=0;endArrow=none;endFill=0;" edge="1" parent="1" source="IfxmSwvC24aHGd51J0QE-16" target="IfxmSwvC24aHGd51J0QE-48">
          <mxGeometry relative="1" as="geometry" />
        </mxCell>
        <mxCell id="IfxmSwvC24aHGd51J0QE-56" style="edgeStyle=orthogonalEdgeStyle;rounded=0;orthogonalLoop=1;jettySize=auto;html=1;entryX=0.002;entryY=0.073;entryDx=0;entryDy=0;entryPerimeter=0;strokeColor=light-dark(#CC0000,#CC0000);endArrow=none;endFill=0;exitX=0.993;exitY=0.183;exitDx=0;exitDy=0;exitPerimeter=0;" edge="1" parent="1" source="IfxmSwvC24aHGd51J0QE-16" target="IfxmSwvC24aHGd51J0QE-48">
          <mxGeometry relative="1" as="geometry">
            <mxPoint x="320" y="540" as="sourcePoint" />
            <Array as="points" />
          </mxGeometry>
        </mxCell>
        <mxCell id="IfxmSwvC24aHGd51J0QE-69" style="edgeStyle=orthogonalEdgeStyle;rounded=0;orthogonalLoop=1;jettySize=auto;html=1;exitX=0.25;exitY=1;exitDx=0;exitDy=0;entryX=0.5;entryY=1;entryDx=0;entryDy=0;jumpStyle=arc;endArrow=none;endFill=0;strokeColor=#66B2FF;" edge="1" parent="1" source="IfxmSwvC24aHGd51J0QE-57" target="IfxmSwvC24aHGd51J0QE-31">
          <mxGeometry relative="1" as="geometry">
            <Array as="points">
              <mxPoint x="369" y="650" />
              <mxPoint x="455" y="650" />
            </Array>
          </mxGeometry>
        </mxCell>
        <mxCell id="IfxmSwvC24aHGd51J0QE-57" value="" style="whiteSpace=wrap;html=1;aspect=fixed;direction=west;" vertex="1" parent="1">
          <mxGeometry x="350" y="665" width="25" height="25" as="geometry" />
        </mxCell>
        <mxCell id="IfxmSwvC24aHGd51J0QE-58" value="&lt;div&gt;Outside I/O&lt;/div&gt;" style="text;strokeColor=none;fillColor=none;align=left;verticalAlign=middle;spacingLeft=4;spacingRight=4;overflow=hidden;points=[[0,0.5],[1,0.5]];portConstraint=eastwest;rotatable=0;whiteSpace=wrap;html=1;" vertex="1" parent="1">
          <mxGeometry x="330" y="680" width="125" height="30" as="geometry" />
        </mxCell>
        <mxCell id="IfxmSwvC24aHGd51J0QE-84" value="&lt;div&gt;&lt;font style=&quot;font-size: 6px;&quot;&gt;48v&lt;/font&gt;&lt;/div&gt;" style="text;whiteSpace=wrap;html=1;" vertex="1" parent="1">
          <mxGeometry x="340" y="570" width="40" height="40" as="geometry" />
        </mxCell>
        <mxCell id="IfxmSwvC24aHGd51J0QE-85" value="&lt;font style=&quot;font-size: 6px;&quot;&gt;24v&lt;/font&gt;" style="text;whiteSpace=wrap;html=1;" vertex="1" parent="1">
          <mxGeometry x="360" y="570" width="40" height="40" as="geometry" />
        </mxCell>
        <mxCell id="IfxmSwvC24aHGd51J0QE-87" style="edgeStyle=orthogonalEdgeStyle;rounded=0;orthogonalLoop=1;jettySize=auto;html=1;exitX=0.75;exitY=1;exitDx=0;exitDy=0;entryX=0.358;entryY=-0.075;entryDx=0;entryDy=0;entryPerimeter=0;jumpStyle=arc;endArrow=none;endFill=0;" edge="1" parent="1" source="IfxmSwvC24aHGd51J0QE-31" target="IfxmSwvC24aHGd51J0QE-58">
          <mxGeometry relative="1" as="geometry">
            <Array as="points">
              <mxPoint x="485" y="600" />
              <mxPoint x="485" y="678" />
            </Array>
          </mxGeometry>
        </mxCell>
        <mxCell id="IfxmSwvC24aHGd51J0QE-88" value="&lt;font style=&quot;font-size: 6px;&quot;&gt;CAN bus&lt;/font&gt;" style="text;whiteSpace=wrap;html=1;" vertex="1" parent="1">
          <mxGeometry x="290" y="510" width="60" height="40" as="geometry" />
        </mxCell>
        <mxCell id="IfxmSwvC24aHGd51J0QE-89" value="&lt;font style=&quot;font-size: 6px;&quot;&gt;USB&lt;/font&gt;" style="text;whiteSpace=wrap;html=1;" vertex="1" parent="1">
          <mxGeometry x="477" y="578" width="60" height="40" as="geometry" />
        </mxCell>
        <mxCell id="IfxmSwvC24aHGd51J0QE-90" value="&lt;font style=&quot;font-size: 6px;&quot;&gt;Ethernet&lt;/font&gt;" style="text;whiteSpace=wrap;html=1;" vertex="1" parent="1">
          <mxGeometry x="446" y="578" width="60" height="40" as="geometry" />
        </mxCell>
        <mxCell id="IfxmSwvC24aHGd51J0QE-91" value="&lt;font style=&quot;font-size: 6px;&quot;&gt;CAN bus&lt;/font&gt;" style="text;whiteSpace=wrap;html=1;" vertex="1" parent="1">
          <mxGeometry x="446" y="510" width="60" height="40" as="geometry" />
        </mxCell>
        <mxCell id="IfxmSwvC24aHGd51J0QE-96" value="&lt;font style=&quot;font-size: 6px;&quot;&gt;DATA&lt;/font&gt;*" style="text;whiteSpace=wrap;html=1;" vertex="1" parent="1">
          <mxGeometry x="350" y="520" width="60" height="40" as="geometry" />
        </mxCell>
        <mxCell id="IfxmSwvC24aHGd51J0QE-97" style="edgeStyle=orthogonalEdgeStyle;rounded=0;orthogonalLoop=1;jettySize=auto;html=1;exitX=1;exitY=0.25;exitDx=0;exitDy=0;entryX=0.566;entryY=0.006;entryDx=0;entryDy=0;entryPerimeter=0;endArrow=none;endFill=0;" edge="1" parent="1" source="IfxmSwvC24aHGd51J0QE-33" target="IfxmSwvC24aHGd51J0QE-31">
          <mxGeometry relative="1" as="geometry">
            <Array as="points">
              <mxPoint x="360" y="474" />
              <mxPoint x="360" y="500" />
              <mxPoint x="460" y="500" />
            </Array>
          </mxGeometry>
        </mxCell>
        <mxCell id="IfxmSwvC24aHGd51J0QE-100" value="&lt;font style=&quot;font-size: 6px;&quot;&gt;120 V~&lt;span style=&quot;white-space: pre;&quot;&gt;&#x9;&lt;/span&gt;&lt;/font&gt;" style="text;whiteSpace=wrap;html=1;" vertex="1" parent="1">
          <mxGeometry x="510" y="538" width="60" height="40" as="geometry" />
        </mxCell>
        <mxCell id="IfxmSwvC24aHGd51J0QE-102" value="" style="rounded=0;whiteSpace=wrap;html=1;" vertex="1" parent="1">
          <mxGeometry x="379" y="532" width="20" height="10" as="geometry" />
        </mxCell>
        <mxCell id="IfxmSwvC24aHGd51J0QE-101" value="&lt;font style=&quot;font-size: 6px;&quot;&gt;MCU&lt;/font&gt;" style="text;whiteSpace=wrap;html=1;" vertex="1" parent="1">
          <mxGeometry x="380" y="520" width="60" height="40" as="geometry" />
        </mxCell>
        <mxCell id="IfxmSwvC24aHGd51J0QE-103" style="edgeStyle=orthogonalEdgeStyle;rounded=0;orthogonalLoop=1;jettySize=auto;html=1;endArrow=none;endFill=0;" edge="1" parent="1" source="IfxmSwvC24aHGd51J0QE-102">
          <mxGeometry relative="1" as="geometry">
            <mxPoint x="420" y="537" as="targetPoint" />
            <Array as="points">
              <mxPoint x="414" y="537" />
            </Array>
          </mxGeometry>
        </mxCell>
        <mxCell id="IfxmSwvC24aHGd51J0QE-104" value="&lt;font style=&quot;font-size: 6px;&quot;&gt;Sevcon&lt;/font&gt;" style="text;whiteSpace=wrap;html=1;" vertex="1" parent="1">
          <mxGeometry x="465" y="446" width="60" height="40" as="geometry" />
        </mxCell>
        <mxCell id="IfxmSwvC24aHGd51J0QE-105" value="&lt;div&gt;com&lt;/div&gt;" style="text;strokeColor=none;fillColor=none;align=left;verticalAlign=middle;spacingLeft=4;spacingRight=4;overflow=hidden;points=[[0,0.5],[1,0.5]];portConstraint=eastwest;rotatable=0;whiteSpace=wrap;html=1;" vertex="1" parent="1">
          <mxGeometry x="520" y="373" width="80" height="30" as="geometry" />
        </mxCell>
      </root>
    </mxGraphModel>
  </diagram>
  <diagram id="fv8QuD2WF6MG7lBnu7YH" name="Page-3">
    <mxGraphModel dx="2557" dy="1221" grid="1" gridSize="10" guides="1" tooltips="1" connect="1" arrows="1" fold="1" page="1" pageScale="1" pageWidth="850" pageHeight="1100" math="0" shadow="0">
      <root>
        <mxCell id="0" />
        <mxCell id="1" parent="0" />
        <mxCell id="i7CT_Sv9TLv1SvEJBlcD-1" value="" style="endArrow=none;html=1;rounded=0;" edge="1" parent="1">
          <mxGeometry width="50" height="50" relative="1" as="geometry">
            <mxPoint x="480" y="600" as="sourcePoint" />
            <mxPoint x="560" y="400" as="targetPoint" />
          </mxGeometry>
        </mxCell>
        <mxCell id="i7CT_Sv9TLv1SvEJBlcD-2" value="" style="endArrow=none;html=1;rounded=0;" edge="1" parent="1">
          <mxGeometry width="50" height="50" relative="1" as="geometry">
            <mxPoint x="320" y="600" as="sourcePoint" />
            <mxPoint x="480" y="600" as="targetPoint" />
          </mxGeometry>
        </mxCell>
        <mxCell id="i7CT_Sv9TLv1SvEJBlcD-3" value="" style="endArrow=none;html=1;rounded=0;" edge="1" parent="1">
          <mxGeometry width="50" height="50" relative="1" as="geometry">
            <mxPoint x="240" y="400" as="sourcePoint" />
            <mxPoint x="320" y="600" as="targetPoint" />
          </mxGeometry>
        </mxCell>
        <mxCell id="i7CT_Sv9TLv1SvEJBlcD-4" value="" style="endArrow=none;html=1;rounded=0;" edge="1" parent="1">
          <mxGeometry width="50" height="50" relative="1" as="geometry">
            <mxPoint x="240" y="400" as="sourcePoint" />
            <mxPoint x="80" y="360" as="targetPoint" />
          </mxGeometry>
        </mxCell>
        <mxCell id="i7CT_Sv9TLv1SvEJBlcD-5" value="" style="endArrow=none;html=1;rounded=0;" edge="1" parent="1">
          <mxGeometry width="50" height="50" relative="1" as="geometry">
            <mxPoint x="80" y="360" as="sourcePoint" />
            <mxPoint x="-50" y="400" as="targetPoint" />
          </mxGeometry>
        </mxCell>
        <mxCell id="i7CT_Sv9TLv1SvEJBlcD-6" value="" style="endArrow=none;html=1;rounded=0;" edge="1" parent="1">
          <mxGeometry width="50" height="50" relative="1" as="geometry">
            <mxPoint x="690" y="360" as="sourcePoint" />
            <mxPoint x="850" y="400" as="targetPoint" />
          </mxGeometry>
        </mxCell>
        <mxCell id="i7CT_Sv9TLv1SvEJBlcD-7" value="" style="endArrow=none;html=1;rounded=0;" edge="1" parent="1">
          <mxGeometry width="50" height="50" relative="1" as="geometry">
            <mxPoint x="560" y="400" as="sourcePoint" />
            <mxPoint x="690" y="360" as="targetPoint" />
          </mxGeometry>
        </mxCell>
        <mxCell id="i7CT_Sv9TLv1SvEJBlcD-8" value="&lt;span style=&quot;color: rgb(255, 255, 255);&quot;&gt;SEVCON&lt;/span&gt;" style="rounded=0;whiteSpace=wrap;html=1;rotation=13.6;direction=west;strokeColor=#666666;fillColor=#3C3C3C;fontColor=#333333;" vertex="1" parent="1">
          <mxGeometry x="110" y="320" width="120" height="60" as="geometry" />
        </mxCell>
        <mxCell id="i7CT_Sv9TLv1SvEJBlcD-10" value="" style="endArrow=none;html=1;rounded=0;" edge="1" parent="1">
          <mxGeometry width="50" height="50" relative="1" as="geometry">
            <mxPoint x="-50" y="290" as="sourcePoint" />
            <mxPoint x="-50" y="400" as="targetPoint" />
          </mxGeometry>
        </mxCell>
        <mxCell id="i7CT_Sv9TLv1SvEJBlcD-11" value="" style="endArrow=none;html=1;rounded=0;" edge="1" parent="1">
          <mxGeometry width="50" height="50" relative="1" as="geometry">
            <mxPoint x="-50" y="290" as="sourcePoint" />
            <mxPoint x="80" y="240" as="targetPoint" />
          </mxGeometry>
        </mxCell>
        <mxCell id="i7CT_Sv9TLv1SvEJBlcD-12" value="" style="endArrow=none;html=1;rounded=0;" edge="1" parent="1">
          <mxGeometry width="50" height="50" relative="1" as="geometry">
            <mxPoint x="80" y="240" as="sourcePoint" />
            <mxPoint x="690" y="240" as="targetPoint" />
          </mxGeometry>
        </mxCell>
        <mxCell id="i7CT_Sv9TLv1SvEJBlcD-13" value="" style="endArrow=none;html=1;rounded=0;" edge="1" parent="1">
          <mxGeometry width="50" height="50" relative="1" as="geometry">
            <mxPoint x="850" y="290" as="sourcePoint" />
            <mxPoint x="690" y="240" as="targetPoint" />
          </mxGeometry>
        </mxCell>
        <mxCell id="i7CT_Sv9TLv1SvEJBlcD-14" value="" style="endArrow=none;html=1;rounded=0;" edge="1" parent="1">
          <mxGeometry width="50" height="50" relative="1" as="geometry">
            <mxPoint x="850" y="290" as="sourcePoint" />
            <mxPoint x="850" y="400" as="targetPoint" />
          </mxGeometry>
        </mxCell>
        <mxCell id="i7CT_Sv9TLv1SvEJBlcD-16" value="" style="rounded=0;whiteSpace=wrap;html=1;rotation=-21.6;fillColor=#d5e8d4;strokeColor=#82b366;" vertex="1" parent="1">
          <mxGeometry x="-30" y="280" width="120" height="20" as="geometry" />
        </mxCell>
        <mxCell id="i7CT_Sv9TLv1SvEJBlcD-17" value="" style="rounded=0;whiteSpace=wrap;html=1;rotation=18.2;fillColor=#d5e8d4;strokeColor=#82b366;" vertex="1" parent="1">
          <mxGeometry x="680" y="280" width="140" height="20" as="geometry" />
        </mxCell>
        <mxCell id="i7CT_Sv9TLv1SvEJBlcD-23" value="" style="whiteSpace=wrap;html=1;aspect=fixed;fillColor=#f8cecc;strokeColor=#b85450;" vertex="1" parent="1">
          <mxGeometry x="140" y="210" width="30" height="30" as="geometry" />
        </mxCell>
        <mxCell id="i7CT_Sv9TLv1SvEJBlcD-24" value="" style="whiteSpace=wrap;html=1;aspect=fixed;fillColor=#f8cecc;strokeColor=#b85450;" vertex="1" parent="1">
          <mxGeometry x="630" y="210" width="30" height="30" as="geometry" />
        </mxCell>
        <mxCell id="i7CT_Sv9TLv1SvEJBlcD-25" value="" style="ellipse;whiteSpace=wrap;html=1;aspect=fixed;fillColor=#060606;" vertex="1" parent="1">
          <mxGeometry x="-70" y="400" width="312.64" height="312.64" as="geometry" />
        </mxCell>
        <mxCell id="i7CT_Sv9TLv1SvEJBlcD-27" value="" style="ellipse;whiteSpace=wrap;html=1;aspect=fixed;fillColor=#030303;" vertex="1" parent="1">
          <mxGeometry x="537" y="400" width="312.64" height="312.64" as="geometry" />
        </mxCell>
        <mxCell id="i7CT_Sv9TLv1SvEJBlcD-28" value="&lt;div&gt;&lt;br&gt;&lt;/div&gt;&lt;div&gt;48V 3&lt;font style=&quot;font-size: 12px;&quot;&gt;Ø&lt;/font&gt;&amp;nbsp;&lt;/div&gt;&lt;div&gt;Brush-less Motor&lt;/div&gt;&lt;div&gt;&lt;br&gt;&lt;/div&gt;&lt;div&gt;&lt;br&gt;&lt;/div&gt;" style="ellipse;whiteSpace=wrap;html=1;aspect=fixed;fillColor=#f5f5f5;fontColor=#333333;strokeColor=#666666;" vertex="1" parent="1">
          <mxGeometry x="350" y="335" width="120" height="120" as="geometry" />
        </mxCell>
        <mxCell id="i7CT_Sv9TLv1SvEJBlcD-29" value="&lt;div&gt;Fort VSC&lt;/div&gt;" style="whiteSpace=wrap;html=1;aspect=fixed;fillColor=#fff2cc;strokeColor=#d6b656;" vertex="1" parent="1">
          <mxGeometry x="590" y="260" width="60" height="60" as="geometry" />
        </mxCell>
        <mxCell id="i7CT_Sv9TLv1SvEJBlcD-34" style="edgeStyle=orthogonalEdgeStyle;rounded=0;orthogonalLoop=1;jettySize=auto;html=1;endArrow=diamond;endFill=1;jumpStyle=arc;strokeWidth=2;entryX=0.25;entryY=1;entryDx=0;entryDy=0;" edge="1" parent="1" source="i7CT_Sv9TLv1SvEJBlcD-30" target="i7CT_Sv9TLv1SvEJBlcD-37">
          <mxGeometry relative="1" as="geometry">
            <mxPoint x="530" y="240" as="targetPoint" />
            <Array as="points">
              <mxPoint x="400" y="520" />
              <mxPoint x="490" y="520" />
              <mxPoint x="490" y="240" />
              <mxPoint x="488" y="240" />
            </Array>
          </mxGeometry>
        </mxCell>
        <mxCell id="i7CT_Sv9TLv1SvEJBlcD-62" style="edgeStyle=orthogonalEdgeStyle;rounded=0;orthogonalLoop=1;jettySize=auto;html=1;entryX=0;entryY=0;entryDx=0;entryDy=0;strokeWidth=2;strokeColor=light-dark(#CC0000,#CC0000);" edge="1" parent="1" source="i7CT_Sv9TLv1SvEJBlcD-30" target="i7CT_Sv9TLv1SvEJBlcD-50">
          <mxGeometry relative="1" as="geometry">
            <Array as="points">
              <mxPoint x="345" y="564" />
              <mxPoint x="345" y="250" />
              <mxPoint x="313" y="250" />
            </Array>
          </mxGeometry>
        </mxCell>
        <mxCell id="i7CT_Sv9TLv1SvEJBlcD-30" value="" style="ellipse;whiteSpace=wrap;html=1;aspect=fixed;" vertex="1" parent="1">
          <mxGeometry x="377.5" y="541.32" width="45" height="45" as="geometry" />
        </mxCell>
        <mxCell id="i7CT_Sv9TLv1SvEJBlcD-31" value="Bay acces" style="text;strokeColor=none;fillColor=none;align=left;verticalAlign=middle;spacingLeft=4;spacingRight=4;overflow=hidden;points=[[0,0.5],[1,0.5]];portConstraint=eastwest;rotatable=0;whiteSpace=wrap;html=1;" vertex="1" parent="1">
          <mxGeometry x="368" y="575" width="80" height="30" as="geometry" />
        </mxCell>
        <mxCell id="i7CT_Sv9TLv1SvEJBlcD-37" value="" style="whiteSpace=wrap;html=1;aspect=fixed;fillColor=#f5f5f5;fontColor=#333333;strokeColor=#666666;" vertex="1" parent="1">
          <mxGeometry x="480" y="240" width="30" height="30" as="geometry" />
        </mxCell>
        <mxCell id="i7CT_Sv9TLv1SvEJBlcD-42" value="120 V~ input" style="text;strokeColor=none;fillColor=none;align=left;verticalAlign=middle;spacingLeft=4;spacingRight=4;overflow=hidden;points=[[0,0.5],[1,0.5]];portConstraint=eastwest;rotatable=0;whiteSpace=wrap;html=1;" vertex="1" parent="1">
          <mxGeometry x="457" y="210" width="80" height="30" as="geometry" />
        </mxCell>
        <mxCell id="i7CT_Sv9TLv1SvEJBlcD-43" value="E-Stop" style="text;strokeColor=none;fillColor=none;align=left;verticalAlign=middle;spacingLeft=4;spacingRight=4;overflow=hidden;points=[[0,0.5],[1,0.5]];portConstraint=eastwest;rotatable=0;whiteSpace=wrap;html=1;" vertex="1" parent="1">
          <mxGeometry x="130" y="180" width="80" height="30" as="geometry" />
        </mxCell>
        <mxCell id="i7CT_Sv9TLv1SvEJBlcD-44" value="E-Stop" style="text;strokeColor=none;fillColor=none;align=left;verticalAlign=middle;spacingLeft=4;spacingRight=4;overflow=hidden;points=[[0,0.5],[1,0.5]];portConstraint=eastwest;rotatable=0;whiteSpace=wrap;html=1;" vertex="1" parent="1">
          <mxGeometry x="620" y="180" width="80" height="30" as="geometry" />
        </mxCell>
        <mxCell id="i7CT_Sv9TLv1SvEJBlcD-47" value="" style="edgeStyle=orthogonalEdgeStyle;rounded=0;orthogonalLoop=1;jettySize=auto;html=1;jumpStyle=arc;strokeWidth=2;endArrow=none;endFill=0;strokeColor=light-dark(#62a0ea, #ededed);" edge="1" parent="1" source="i7CT_Sv9TLv1SvEJBlcD-30" target="i7CT_Sv9TLv1SvEJBlcD-46">
          <mxGeometry relative="1" as="geometry">
            <mxPoint x="520" y="390" as="targetPoint" />
            <mxPoint x="400" y="541" as="sourcePoint" />
            <Array as="points">
              <mxPoint x="400" y="540" />
              <mxPoint x="500" y="540" />
              <mxPoint x="500" y="395" />
            </Array>
          </mxGeometry>
        </mxCell>
        <mxCell id="i7CT_Sv9TLv1SvEJBlcD-46" value="" style="whiteSpace=wrap;html=1;aspect=fixed;fillColor=#f5f5f5;fontColor=#333333;strokeColor=#666666;" vertex="1" parent="1">
          <mxGeometry x="507" y="380" width="30" height="30" as="geometry" />
        </mxCell>
        <mxCell id="i7CT_Sv9TLv1SvEJBlcD-48" value="PCAN USB" style="text;strokeColor=none;fillColor=none;align=left;verticalAlign=middle;spacingLeft=4;spacingRight=4;overflow=hidden;points=[[0,0.5],[1,0.5]];portConstraint=eastwest;rotatable=0;whiteSpace=wrap;html=1;" vertex="1" parent="1">
          <mxGeometry x="490" y="350" width="80" height="30" as="geometry" />
        </mxCell>
        <mxCell id="i7CT_Sv9TLv1SvEJBlcD-50" value="" style="rounded=0;whiteSpace=wrap;html=1;direction=south;" vertex="1" parent="1">
          <mxGeometry x="282.5" y="260" width="30" height="40" as="geometry" />
        </mxCell>
        <mxCell id="i7CT_Sv9TLv1SvEJBlcD-52" value="main 48v Relay" style="text;strokeColor=none;fillColor=none;align=left;verticalAlign=middle;spacingLeft=4;spacingRight=4;overflow=hidden;points=[[0,0.5],[1,0.5]];portConstraint=eastwest;rotatable=0;whiteSpace=wrap;html=1;" vertex="1" parent="1">
          <mxGeometry x="245" y="210" width="105" height="30" as="geometry" />
        </mxCell>
        <mxCell id="i7CT_Sv9TLv1SvEJBlcD-53" style="edgeStyle=orthogonalEdgeStyle;rounded=0;orthogonalLoop=1;jettySize=auto;html=1;exitX=0;exitY=0.5;exitDx=0;exitDy=0;entryX=0;entryY=0.458;entryDx=0;entryDy=0;entryPerimeter=0;endArrow=none;endFill=0;strokeWidth=2;strokeColor=light-dark(#CC0000,#CC0000);jumpStyle=arc;" edge="1" parent="1" source="i7CT_Sv9TLv1SvEJBlcD-8" target="i7CT_Sv9TLv1SvEJBlcD-28">
          <mxGeometry relative="1" as="geometry">
            <Array as="points">
              <mxPoint x="228" y="390" />
            </Array>
          </mxGeometry>
        </mxCell>
        <mxCell id="i7CT_Sv9TLv1SvEJBlcD-54" style="edgeStyle=orthogonalEdgeStyle;rounded=0;orthogonalLoop=1;jettySize=auto;html=1;exitX=0;exitY=0.5;exitDx=0;exitDy=0;entryX=0;entryY=0.458;entryDx=0;entryDy=0;entryPerimeter=0;endArrow=none;endFill=0;strokeWidth=2;strokeColor=light-dark(#CC0000,#CC0000);jumpStyle=arc;" edge="1" parent="1">
          <mxGeometry relative="1" as="geometry">
            <mxPoint x="230" y="353.97" as="sourcePoint" />
            <mxPoint x="352" y="379.97" as="targetPoint" />
            <Array as="points">
              <mxPoint x="230" y="379.97" />
            </Array>
          </mxGeometry>
        </mxCell>
        <mxCell id="i7CT_Sv9TLv1SvEJBlcD-55" style="edgeStyle=orthogonalEdgeStyle;rounded=0;orthogonalLoop=1;jettySize=auto;html=1;exitX=0;exitY=0.75;exitDx=0;exitDy=0;entryX=0;entryY=0.458;entryDx=0;entryDy=0;entryPerimeter=0;endArrow=none;endFill=0;strokeWidth=2;strokeColor=light-dark(#CC0000,#CC0000);jumpStyle=arc;" edge="1" parent="1" source="i7CT_Sv9TLv1SvEJBlcD-8">
          <mxGeometry relative="1" as="geometry">
            <mxPoint x="236.5" y="340" as="sourcePoint" />
            <mxPoint x="358.5" y="366" as="targetPoint" />
            <Array as="points">
              <mxPoint x="232" y="366" />
            </Array>
          </mxGeometry>
        </mxCell>
        <mxCell id="i7CT_Sv9TLv1SvEJBlcD-56" style="edgeStyle=orthogonalEdgeStyle;rounded=0;orthogonalLoop=1;jettySize=auto;html=1;exitX=0;exitY=0;exitDx=0;exitDy=0;entryX=0.003;entryY=0.869;entryDx=0;entryDy=0;entryPerimeter=0;jumpStyle=arc;" edge="1" parent="1" source="i7CT_Sv9TLv1SvEJBlcD-28" target="i7CT_Sv9TLv1SvEJBlcD-8">
          <mxGeometry relative="1" as="geometry" />
        </mxCell>
        <mxCell id="i7CT_Sv9TLv1SvEJBlcD-57" value="Data" style="text;strokeColor=none;fillColor=none;align=left;verticalAlign=middle;spacingLeft=4;spacingRight=4;overflow=hidden;points=[[0,0.5],[1,0.5]];portConstraint=eastwest;rotatable=0;whiteSpace=wrap;html=1;" vertex="1" parent="1">
          <mxGeometry x="370" y="340" width="80" height="30" as="geometry" />
        </mxCell>
      </root>
    </mxGraphModel>
  </diagram>
  <diagram id="LeBKHyO7rUtbjxaPR2Ed" name="Page-4">
    <mxGraphModel dx="1846" dy="713" grid="1" gridSize="10" guides="1" tooltips="1" connect="1" arrows="1" fold="1" page="1" pageScale="1" pageWidth="850" pageHeight="1100" math="0" shadow="0">
      <root>
        <mxCell id="0" />
        <mxCell id="1" parent="0" />
        <mxCell id="mqXH41EJy8-WNvLUwuD_-24" style="edgeStyle=orthogonalEdgeStyle;rounded=0;orthogonalLoop=1;jettySize=auto;html=1;entryX=0;entryY=0.25;entryDx=0;entryDy=0;endArrow=none;endFill=0;strokeWidth=2;" edge="1" parent="1" source="mqXH41EJy8-WNvLUwuD_-3" target="mqXH41EJy8-WNvLUwuD_-5">
          <mxGeometry relative="1" as="geometry">
            <Array as="points">
              <mxPoint x="50" y="303" />
              <mxPoint x="300" y="303" />
            </Array>
          </mxGeometry>
        </mxCell>
        <mxCell id="mqXH41EJy8-WNvLUwuD_-30" style="edgeStyle=orthogonalEdgeStyle;rounded=0;orthogonalLoop=1;jettySize=auto;html=1;exitX=0.5;exitY=1;exitDx=0;exitDy=0;entryX=0;entryY=0;entryDx=0;entryDy=0;strokeWidth=2;endArrow=none;endFill=0;strokeColor=light-dark(#CC0000,#CC0000);jumpStyle=arc;" edge="1" parent="1" source="mqXH41EJy8-WNvLUwuD_-3" target="mqXH41EJy8-WNvLUwuD_-7">
          <mxGeometry relative="1" as="geometry">
            <Array as="points">
              <mxPoint x="35" y="330" />
              <mxPoint x="140" y="330" />
              <mxPoint x="140" y="350" />
            </Array>
          </mxGeometry>
        </mxCell>
        <mxCell id="mqXH41EJy8-WNvLUwuD_-32" style="edgeStyle=orthogonalEdgeStyle;rounded=0;orthogonalLoop=1;jettySize=auto;html=1;exitX=0.196;exitY=1.005;exitDx=0;exitDy=0;entryX=0.25;entryY=0;entryDx=0;entryDy=0;strokeWidth=2;endArrow=none;endFill=0;exitPerimeter=0;" edge="1" parent="1" source="mqXH41EJy8-WNvLUwuD_-3" target="mqXH41EJy8-WNvLUwuD_-7">
          <mxGeometry relative="1" as="geometry">
            <Array as="points">
              <mxPoint x="50" y="320" />
              <mxPoint x="153" y="320" />
              <mxPoint x="153" y="350" />
            </Array>
          </mxGeometry>
        </mxCell>
        <mxCell id="mqXH41EJy8-WNvLUwuD_-33" value="" style="edgeStyle=orthogonalEdgeStyle;rounded=0;orthogonalLoop=1;jettySize=auto;html=1;endArrow=none;endFill=0;" edge="1" parent="1" source="mqXH41EJy8-WNvLUwuD_-3" target="mqXH41EJy8-WNvLUwuD_-7">
          <mxGeometry relative="1" as="geometry">
            <Array as="points">
              <mxPoint x="90" y="390" />
              <mxPoint x="90" y="390" />
            </Array>
          </mxGeometry>
        </mxCell>
        <mxCell id="lnx-pCbBLTD2lY4konPg-24" style="edgeStyle=orthogonalEdgeStyle;rounded=0;orthogonalLoop=1;jettySize=auto;html=1;entryX=0.25;entryY=0;entryDx=0;entryDy=0;endArrow=none;endFill=0;" edge="1" parent="1" source="mqXH41EJy8-WNvLUwuD_-3" target="mqXH41EJy8-WNvLUwuD_-9">
          <mxGeometry relative="1" as="geometry">
            <Array as="points">
              <mxPoint x="20" y="440" />
              <mxPoint x="20" y="440" />
            </Array>
          </mxGeometry>
        </mxCell>
        <mxCell id="lnx-pCbBLTD2lY4konPg-33" style="edgeStyle=orthogonalEdgeStyle;rounded=0;orthogonalLoop=1;jettySize=auto;html=1;exitX=0.25;exitY=0;exitDx=0;exitDy=0;entryX=0;entryY=1;entryDx=0;entryDy=0;endArrow=none;endFill=0;" edge="1" parent="1" source="mqXH41EJy8-WNvLUwuD_-3" target="lnx-pCbBLTD2lY4konPg-32">
          <mxGeometry relative="1" as="geometry">
            <Array as="points">
              <mxPoint x="50" y="440" />
              <mxPoint x="50" y="510" />
              <mxPoint x="243" y="510" />
            </Array>
          </mxGeometry>
        </mxCell>
        <mxCell id="lnx-pCbBLTD2lY4konPg-45" style="edgeStyle=orthogonalEdgeStyle;rounded=0;orthogonalLoop=1;jettySize=auto;html=1;exitX=1;exitY=0.75;exitDx=0;exitDy=0;" edge="1" parent="1" source="mqXH41EJy8-WNvLUwuD_-3">
          <mxGeometry relative="1" as="geometry">
            <mxPoint x="-108" y="387" as="targetPoint" />
          </mxGeometry>
        </mxCell>
        <mxCell id="mqXH41EJy8-WNvLUwuD_-3" value="&lt;div&gt;Center&lt;/div&gt;&lt;div&gt;bay&lt;/div&gt;&lt;div&gt;access&lt;/div&gt;" style="whiteSpace=wrap;html=1;aspect=fixed;direction=west;" vertex="1" parent="1">
          <mxGeometry y="370" width="70" height="70" as="geometry" />
        </mxCell>
        <mxCell id="mqXH41EJy8-WNvLUwuD_-16" style="edgeStyle=orthogonalEdgeStyle;rounded=0;orthogonalLoop=1;jettySize=auto;html=1;strokeWidth=3;endArrow=none;endFill=0;strokeColor=light-dark(#e01b24, #ededed);" edge="1" parent="1" source="mqXH41EJy8-WNvLUwuD_-5" target="mqXH41EJy8-WNvLUwuD_-6">
          <mxGeometry relative="1" as="geometry" />
        </mxCell>
        <mxCell id="lnx-pCbBLTD2lY4konPg-42" style="edgeStyle=orthogonalEdgeStyle;rounded=0;orthogonalLoop=1;jettySize=auto;html=1;exitX=0;exitY=0.5;exitDx=0;exitDy=0;jumpStyle=arc;endArrow=none;endFill=0;" edge="1" parent="1" source="mqXH41EJy8-WNvLUwuD_-5" target="mqXH41EJy8-WNvLUwuD_-12">
          <mxGeometry relative="1" as="geometry" />
        </mxCell>
        <mxCell id="mqXH41EJy8-WNvLUwuD_-5" value="SEVCON" style="whiteSpace=wrap;html=1;aspect=fixed;fillColor=#f5f5f5;fontColor=#333333;strokeColor=#666666;" vertex="1" parent="1">
          <mxGeometry x="330" y="270" width="130" height="130" as="geometry" />
        </mxCell>
        <mxCell id="mqXH41EJy8-WNvLUwuD_-19" style="edgeStyle=orthogonalEdgeStyle;rounded=0;orthogonalLoop=1;jettySize=auto;html=1;entryX=0.75;entryY=1;entryDx=0;entryDy=0;endArrow=none;endFill=0;" edge="1" parent="1" source="mqXH41EJy8-WNvLUwuD_-6" target="mqXH41EJy8-WNvLUwuD_-5">
          <mxGeometry relative="1" as="geometry">
            <Array as="points">
              <mxPoint x="595" y="430" />
              <mxPoint x="428" y="430" />
            </Array>
          </mxGeometry>
        </mxCell>
        <mxCell id="mqXH41EJy8-WNvLUwuD_-6" value="Motor" style="ellipse;whiteSpace=wrap;html=1;aspect=fixed;fillColor=#f5f5f5;fontColor=#333333;strokeColor=#666666;" vertex="1" parent="1">
          <mxGeometry x="570" y="275" width="120" height="120" as="geometry" />
        </mxCell>
        <mxCell id="mqXH41EJy8-WNvLUwuD_-7" value="" style="whiteSpace=wrap;html=1;aspect=fixed;fillColor=#d5e8d4;strokeColor=#82b366;" vertex="1" parent="1">
          <mxGeometry x="132.5" y="350" width="100" height="100" as="geometry" />
        </mxCell>
        <mxCell id="lnx-pCbBLTD2lY4konPg-16" style="edgeStyle=orthogonalEdgeStyle;rounded=0;orthogonalLoop=1;jettySize=auto;html=1;entryX=0.5;entryY=0;entryDx=0;entryDy=0;endArrow=none;endFill=0;" edge="1" parent="1" source="mqXH41EJy8-WNvLUwuD_-9" target="mqXH41EJy8-WNvLUwuD_-3">
          <mxGeometry relative="1" as="geometry">
            <Array as="points">
              <mxPoint x="50" y="440" />
            </Array>
          </mxGeometry>
        </mxCell>
        <mxCell id="lnx-pCbBLTD2lY4konPg-26" style="edgeStyle=orthogonalEdgeStyle;rounded=0;orthogonalLoop=1;jettySize=auto;html=1;entryX=0.5;entryY=1;entryDx=0;entryDy=0;entryPerimeter=0;endArrow=none;endFill=0;" edge="1" parent="1" source="mqXH41EJy8-WNvLUwuD_-9" target="lnx-pCbBLTD2lY4konPg-27">
          <mxGeometry relative="1" as="geometry">
            <mxPoint x="-80" y="570" as="targetPoint" />
            <Array as="points">
              <mxPoint x="-120" y="570" />
              <mxPoint x="-120" y="570" />
            </Array>
          </mxGeometry>
        </mxCell>
        <mxCell id="mqXH41EJy8-WNvLUwuD_-9" value="Fort VSC" style="whiteSpace=wrap;html=1;aspect=fixed;fillColor=#fff2cc;strokeColor=#d6b656;" vertex="1" parent="1">
          <mxGeometry x="5" y="540" width="60" height="60" as="geometry" />
        </mxCell>
        <mxCell id="mqXH41EJy8-WNvLUwuD_-12" value="" style="pointerEvents=1;verticalLabelPosition=bottom;shadow=0;dashed=0;align=center;html=1;verticalAlign=top;shape=mxgraph.electrical.electro-mechanical.relay_coil;direction=south;" vertex="1" parent="1">
          <mxGeometry x="177" y="218" width="35" height="70" as="geometry" />
        </mxCell>
        <mxCell id="mqXH41EJy8-WNvLUwuD_-13" value="" style="pointerEvents=1;verticalLabelPosition=bottom;shadow=0;dashed=0;align=center;html=1;verticalAlign=top;shape=mxgraph.electrical.electro-mechanical.relay_contacts;direction=east;" vertex="1" parent="1">
          <mxGeometry x="180" y="193" width="30" height="24" as="geometry" />
        </mxCell>
        <mxCell id="mqXH41EJy8-WNvLUwuD_-15" value="Main Relay" style="text;strokeColor=none;fillColor=none;align=left;verticalAlign=middle;spacingLeft=4;spacingRight=4;overflow=hidden;points=[[0,0.5],[1,0.5]];portConstraint=eastwest;rotatable=0;whiteSpace=wrap;html=1;" vertex="1" parent="1">
          <mxGeometry x="162.81" y="160" width="80" height="30" as="geometry" />
        </mxCell>
        <mxCell id="mqXH41EJy8-WNvLUwuD_-18" value="&amp;nbsp; 48V~ 3&lt;font style=&quot;font-size: 12px;&quot;&gt;Ø&lt;/font&gt;" style="text;strokeColor=none;fillColor=none;align=left;verticalAlign=middle;spacingLeft=4;spacingRight=4;overflow=hidden;points=[[0,0.5],[1,0.5]];portConstraint=eastwest;rotatable=0;whiteSpace=wrap;html=1;" vertex="1" parent="1">
          <mxGeometry x="470" y="300" width="80" height="30" as="geometry" />
        </mxCell>
        <mxCell id="mqXH41EJy8-WNvLUwuD_-21" value="Data" style="text;strokeColor=none;fillColor=none;align=left;verticalAlign=middle;spacingLeft=4;spacingRight=4;overflow=hidden;points=[[0,0.5],[1,0.5]];portConstraint=eastwest;rotatable=0;whiteSpace=wrap;html=1;" vertex="1" parent="1">
          <mxGeometry x="480" y="400" width="80" height="30" as="geometry" />
        </mxCell>
        <mxCell id="mqXH41EJy8-WNvLUwuD_-22" style="edgeStyle=orthogonalEdgeStyle;rounded=0;orthogonalLoop=1;jettySize=auto;html=1;entryX=0;entryY=0.5;entryDx=0;entryDy=0;entryPerimeter=0;strokeColor=light-dark(#CC0000,#CC0000);endArrow=none;endFill=0;strokeWidth=2;" edge="1" parent="1" source="mqXH41EJy8-WNvLUwuD_-3" target="mqXH41EJy8-WNvLUwuD_-13">
          <mxGeometry relative="1" as="geometry">
            <Array as="points">
              <mxPoint x="35" y="205" />
            </Array>
          </mxGeometry>
        </mxCell>
        <mxCell id="mqXH41EJy8-WNvLUwuD_-25" value="" style="pointerEvents=1;verticalLabelPosition=bottom;shadow=0;dashed=0;align=center;html=1;verticalAlign=top;shape=mxgraph.electrical.miscellaneous.fuse_4;direction=south;" vertex="1" parent="1">
          <mxGeometry x="340" y="210" width="16" height="60" as="geometry" />
        </mxCell>
        <mxCell id="mqXH41EJy8-WNvLUwuD_-28" value="&lt;div&gt;125A&lt;/div&gt;" style="text;strokeColor=none;fillColor=none;align=left;verticalAlign=middle;spacingLeft=4;spacingRight=4;overflow=hidden;points=[[0,0.5],[1,0.5]];portConstraint=eastwest;rotatable=0;whiteSpace=wrap;html=1;" vertex="1" parent="1">
          <mxGeometry x="291" y="230" width="80" height="30" as="geometry" />
        </mxCell>
        <mxCell id="mqXH41EJy8-WNvLUwuD_-29" style="edgeStyle=orthogonalEdgeStyle;rounded=0;orthogonalLoop=1;jettySize=auto;html=1;exitX=1;exitY=0.5;exitDx=0;exitDy=0;exitPerimeter=0;entryX=0;entryY=0.5;entryDx=0;entryDy=0;entryPerimeter=0;endArrow=none;endFill=0;strokeWidth=2;strokeColor=light-dark(#CC0000,#CC0000);" edge="1" parent="1" source="mqXH41EJy8-WNvLUwuD_-13" target="mqXH41EJy8-WNvLUwuD_-25">
          <mxGeometry relative="1" as="geometry">
            <Array as="points">
              <mxPoint x="348" y="205" />
            </Array>
          </mxGeometry>
        </mxCell>
        <mxCell id="lnx-pCbBLTD2lY4konPg-2" value="LED Master" style="text;strokeColor=none;fillColor=none;align=left;verticalAlign=middle;spacingLeft=4;spacingRight=4;overflow=hidden;points=[[0,0.5],[1,0.5]];portConstraint=eastwest;rotatable=0;whiteSpace=wrap;html=1;" vertex="1" parent="1">
          <mxGeometry x="141" y="346" width="115" height="30" as="geometry" />
        </mxCell>
        <mxCell id="lnx-pCbBLTD2lY4konPg-3" value="&lt;font style=&quot;font-size: 10px;&quot;&gt;CAN bus 120&lt;/font&gt;&amp;nbsp;&lt;span class=&quot;_97w2Z3njlMm7Og_zyqu4&quot;&gt;Ω&lt;/span&gt;" style="text;strokeColor=none;fillColor=none;align=left;verticalAlign=middle;spacingLeft=4;spacingRight=4;overflow=hidden;points=[[0,0.5],[1,0.5]];portConstraint=eastwest;rotatable=0;whiteSpace=wrap;html=1;" vertex="1" parent="1">
          <mxGeometry x="140" y="373" width="115" height="30" as="geometry" />
        </mxCell>
        <mxCell id="lnx-pCbBLTD2lY4konPg-4" value="&lt;font style=&quot;font-size: 10px;&quot;&gt;Motor Enable&lt;/font&gt;" style="text;strokeColor=none;fillColor=none;align=left;verticalAlign=middle;spacingLeft=4;spacingRight=4;overflow=hidden;points=[[0,0.5],[1,0.5]];portConstraint=eastwest;rotatable=0;whiteSpace=wrap;html=1;" vertex="1" parent="1">
          <mxGeometry x="141" y="395" width="115" height="30" as="geometry" />
        </mxCell>
        <mxCell id="lnx-pCbBLTD2lY4konPg-6" style="edgeStyle=orthogonalEdgeStyle;rounded=0;orthogonalLoop=1;jettySize=auto;html=1;entryX=-0.001;entryY=0.878;entryDx=0;entryDy=0;entryPerimeter=0;endArrow=none;endFill=0;" edge="1" parent="1" source="mqXH41EJy8-WNvLUwuD_-7" target="mqXH41EJy8-WNvLUwuD_-5">
          <mxGeometry relative="1" as="geometry">
            <Array as="points">
              <mxPoint x="330" y="390" />
            </Array>
          </mxGeometry>
        </mxCell>
        <mxCell id="lnx-pCbBLTD2lY4konPg-7" style="edgeStyle=orthogonalEdgeStyle;rounded=0;orthogonalLoop=1;jettySize=auto;html=1;entryX=0.154;entryY=1;entryDx=0;entryDy=0;entryPerimeter=0;endArrow=none;endFill=0;" edge="1" parent="1" target="mqXH41EJy8-WNvLUwuD_-5">
          <mxGeometry relative="1" as="geometry">
            <mxPoint x="230" y="410" as="sourcePoint" />
            <Array as="points">
              <mxPoint x="350" y="410" />
            </Array>
          </mxGeometry>
        </mxCell>
        <mxCell id="lnx-pCbBLTD2lY4konPg-23" value="&lt;font style=&quot;font-size: 9px;&quot;&gt;24v&lt;/font&gt;" style="text;strokeColor=none;fillColor=none;align=left;verticalAlign=middle;spacingLeft=4;spacingRight=4;overflow=hidden;points=[[0,0.5],[1,0.5]];portConstraint=eastwest;rotatable=0;whiteSpace=wrap;html=1;" vertex="1" parent="1">
          <mxGeometry x="40" y="531" width="85" height="30" as="geometry" />
        </mxCell>
        <mxCell id="lnx-pCbBLTD2lY4konPg-25" value="RC" style="text;strokeColor=none;fillColor=none;align=left;verticalAlign=middle;spacingLeft=4;spacingRight=4;overflow=hidden;points=[[0,0.5],[1,0.5]];portConstraint=eastwest;rotatable=0;whiteSpace=wrap;html=1;" vertex="1" parent="1">
          <mxGeometry x="5" y="531" width="85" height="30" as="geometry" />
        </mxCell>
        <mxCell id="lnx-pCbBLTD2lY4konPg-27" value="" style="verticalLabelPosition=bottom;shadow=0;dashed=0;align=center;html=1;verticalAlign=top;shape=mxgraph.electrical.radio.aerial_-_antenna_1;" vertex="1" parent="1">
          <mxGeometry x="-160" y="490" width="80" height="80" as="geometry" />
        </mxCell>
        <mxCell id="lnx-pCbBLTD2lY4konPg-28" value="Fort RC controller antena" style="text;strokeColor=none;fillColor=none;align=left;verticalAlign=middle;spacingLeft=4;spacingRight=4;overflow=hidden;points=[[0,0.5],[1,0.5]];portConstraint=eastwest;rotatable=0;whiteSpace=wrap;html=1;" vertex="1" parent="1">
          <mxGeometry x="-190" y="460" width="165" height="30" as="geometry" />
        </mxCell>
        <mxCell id="lnx-pCbBLTD2lY4konPg-29" value="" style="edgeStyle=orthogonalEdgeStyle;rounded=0;orthogonalLoop=1;jettySize=auto;html=1;endArrow=none;endFill=0;" edge="1" parent="1">
          <mxGeometry relative="1" as="geometry">
            <mxPoint x="70" y="410.25" as="sourcePoint" />
            <mxPoint x="133" y="410" as="targetPoint" />
            <Array as="points">
              <mxPoint x="133" y="410" />
            </Array>
          </mxGeometry>
        </mxCell>
        <mxCell id="lnx-pCbBLTD2lY4konPg-30" value="" style="verticalLabelPosition=bottom;shadow=0;dashed=0;align=center;html=1;verticalAlign=top;shape=mxgraph.electrical.rot_mech.synchro;direction=south;" vertex="1" parent="1">
          <mxGeometry x="360" y="542" width="70" height="56" as="geometry" />
        </mxCell>
        <mxCell id="lnx-pCbBLTD2lY4konPg-32" value="" style="html=1;shape=mxgraph.electrical.electro-mechanical.liquidLevelActuatedSwitch2;aspect=fixed;elSwitchState=off;" vertex="1" parent="1">
          <mxGeometry x="242.81" y="520" width="117.19" height="50" as="geometry" />
        </mxCell>
        <mxCell id="lnx-pCbBLTD2lY4konPg-34" value="Water Sensor" style="text;strokeColor=none;fillColor=none;align=left;verticalAlign=middle;spacingLeft=4;spacingRight=4;overflow=hidden;points=[[0,0.5],[1,0.5]];portConstraint=eastwest;rotatable=0;whiteSpace=wrap;html=1;" vertex="1" parent="1">
          <mxGeometry x="256" y="500" width="115" height="20" as="geometry" />
        </mxCell>
        <mxCell id="lnx-pCbBLTD2lY4konPg-35" value="Pump" style="text;strokeColor=none;fillColor=none;align=left;verticalAlign=middle;spacingLeft=4;spacingRight=4;overflow=hidden;points=[[0,0.5],[1,0.5]];portConstraint=eastwest;rotatable=0;whiteSpace=wrap;html=1;" vertex="1" parent="1">
          <mxGeometry x="371" y="560" width="115" height="20" as="geometry" />
        </mxCell>
        <mxCell id="lnx-pCbBLTD2lY4konPg-38" value="" style="pointerEvents=1;verticalLabelPosition=bottom;shadow=0;dashed=0;align=center;html=1;verticalAlign=top;shape=mxgraph.electrical.signal_sources.protective_earth;" vertex="1" parent="1">
          <mxGeometry x="132.5" y="255" width="25" height="20" as="geometry" />
        </mxCell>
        <mxCell id="lnx-pCbBLTD2lY4konPg-41" style="edgeStyle=orthogonalEdgeStyle;rounded=0;orthogonalLoop=1;jettySize=auto;html=1;exitX=0.5;exitY=0;exitDx=0;exitDy=0;exitPerimeter=0;entryX=0.5;entryY=1;entryDx=0;entryDy=0;entryPerimeter=0;endArrow=none;endFill=0;" edge="1" parent="1" source="lnx-pCbBLTD2lY4konPg-38" target="mqXH41EJy8-WNvLUwuD_-12">
          <mxGeometry relative="1" as="geometry">
            <Array as="points">
              <mxPoint x="145" y="253" />
              <mxPoint x="178" y="253" />
            </Array>
          </mxGeometry>
        </mxCell>
        <mxCell id="lnx-pCbBLTD2lY4konPg-43" value="" style="pointerEvents=1;verticalLabelPosition=bottom;shadow=0;dashed=0;align=center;html=1;verticalAlign=top;shape=mxgraph.electrical.signal_sources.protective_earth;" vertex="1" parent="1">
          <mxGeometry x="460" y="590" width="25" height="20" as="geometry" />
        </mxCell>
        <mxCell id="lnx-pCbBLTD2lY4konPg-44" style="edgeStyle=orthogonalEdgeStyle;rounded=0;orthogonalLoop=1;jettySize=auto;html=1;exitX=0.5;exitY=0;exitDx=0;exitDy=0;exitPerimeter=0;entryX=0.5;entryY=0;entryDx=0;entryDy=0;entryPerimeter=0;endArrow=none;endFill=0;" edge="1" parent="1" source="lnx-pCbBLTD2lY4konPg-30" target="lnx-pCbBLTD2lY4konPg-43">
          <mxGeometry relative="1" as="geometry" />
        </mxCell>
        <mxCell id="lnx-pCbBLTD2lY4konPg-46" value="&lt;div&gt;E-Stop&lt;/div&gt;&lt;div&gt;Loop&lt;/div&gt;" style="whiteSpace=wrap;html=1;aspect=fixed;direction=west;" vertex="1" parent="1">
          <mxGeometry x="-180" y="365" width="70" height="70" as="geometry" />
        </mxCell>
        <mxCell id="lnx-pCbBLTD2lY4konPg-48" style="edgeStyle=orthogonalEdgeStyle;rounded=0;orthogonalLoop=1;jettySize=auto;html=1;exitX=0;exitY=0.25;exitDx=0;exitDy=0;entryX=1.026;entryY=0.316;entryDx=0;entryDy=0;entryPerimeter=0;" edge="1" parent="1" source="lnx-pCbBLTD2lY4konPg-46" target="mqXH41EJy8-WNvLUwuD_-3">
          <mxGeometry relative="1" as="geometry" />
        </mxCell>
      </root>
    </mxGraphModel>
  </diagram>
</mxfile>
